<svg width="24" height="18" viewBox="0 0 24 18" fill="none" xmlns="http://www.w3.org/2000/svg">
<path d="M23.2049 8.745C22.3228 6.46324 20.7914 4.48996 18.8 3.06906C16.8086 1.64817 14.4445 0.84193 11.9999 0.75C9.55531 0.84193 7.19122 1.64817 5.19983 3.06906C3.20844 4.48996 1.67705 6.46324 0.794925 8.745C0.73535 8.90978 0.73535 9.09022 0.794925 9.255C1.67705 11.5368 3.20844 13.51 5.19983 14.9309C7.19122 16.3518 9.55531 17.1581 11.9999 17.25C14.4445 17.1581 16.8086 16.3518 18.8 14.9309C20.7914 13.51 22.3228 11.5368 23.2049 9.255C23.2645 9.09022 23.2645 8.90978 23.2049 8.745ZM11.9999 13.875C11.0357 13.875 10.0932 13.5891 9.29152 13.0534C8.48983 12.5177 7.86499 11.7564 7.49601 10.8656C7.12704 9.97479 7.03049 8.99459 7.2186 8.04893C7.4067 7.10328 7.871 6.23464 8.55278 5.55285C9.23456 4.87107 10.1032 4.40677 11.0489 4.21867C11.9945 4.03057 12.9747 4.12711 13.8655 4.49609C14.7563 4.86506 15.5177 5.48991 16.0533 6.2916C16.589 7.09329 16.8749 8.03582 16.8749 9C16.8729 10.2923 16.3587 11.5311 15.4449 12.445C14.5311 13.3588 13.2922 13.873 11.9999 13.875Z" fill="#4B7FD6"/>
</svg>
